<?xml version="1.0" encoding="UTF-8"?>
<svg version="1.1" xmlns="http://www.w3.org/2000/svg" width="256" height="247">
<path d="M0 0 C9.9 0 19.8 0 30 0 C30 9.57 30 19.14 30 29 C27.03 29 24.06 29 21 29 C21 31.97 21 34.94 21 38 C17.7 38 14.4 38 11 38 C11 41.3 11 44.6 11 48 C8.36 48 5.72 48 3 48 C2.67 50.97 2.34 53.94 2 57 C-0.97 57 -3.94 57 -7 57 C-7 59.97 -7 62.94 -7 66 C-9.97 66 -12.94 66 -16 66 C-16 68.97 -16 71.94 -16 75 C-20.455 75.495 -20.455 75.495 -25 76 C-24.979375 77.134375 -24.95875 78.26875 -24.9375 79.4375 C-25 83 -25 83 -26 84 C-27.51928038 84.07179964 -29.04167482 84.08392007 -30.5625 84.0625 C-31.80193359 84.04896484 -31.80193359 84.04896484 -33.06640625 84.03515625 C-34.02353516 84.01775391 -34.02353516 84.01775391 -35 84 C-34.98839844 84.63808594 -34.97679687 85.27617187 -34.96484375 85.93359375 C-34.95582031 86.75988281 -34.94679688 87.58617187 -34.9375 88.4375 C-34.92589844 89.26121094 -34.91429687 90.08492188 -34.90234375 90.93359375 C-35 93 -35 93 -36 94 C-38.33297433 94.04092937 -40.66705225 94.04241723 -43 94 C-43.33 96.31 -43.66 98.62 -44 101 C-41.03 101 -38.06 101 -35 101 C-35 103.97 -35 106.94 -35 110 C-32.8034375 109.9690625 -32.8034375 109.9690625 -30.5625 109.9375 C-29.04167482 109.91607993 -27.51928038 109.92820036 -26 110 C-24.4779041 111.5220959 -24.87040479 112.88210082 -24.8671875 115 C-24.86589844 115.804375 -24.86460937 116.60875 -24.86328125 117.4375 C-24.86714844 118.283125 -24.87101562 119.12875 -24.875 120 C-24.87113281 120.845625 -24.86726563 121.69125 -24.86328125 122.5625 C-24.86457031 123.366875 -24.86585938 124.17125 -24.8671875 125 C-24.86831543 125.7425 -24.86944336 126.485 -24.87060547 127.25 C-25 129 -25 129 -26 130 C-27.4887186 130.08669432 -28.981445 130.10703494 -30.47265625 130.09765625 C-31.37177734 130.09443359 -32.27089844 130.09121094 -33.19726562 130.08789062 C-34.14279297 130.07951172 -35.08832031 130.07113281 -36.0625 130.0625 C-37.4865918 130.05573242 -37.4865918 130.05573242 -38.93945312 130.04882812 C-41.29299531 130.03700128 -43.64650532 130.01906521 -46 130 C-46 127.03 -46 124.06 -46 121 C-48.97 121 -51.94 121 -55 121 C-55 118.03 -55 115.06 -55 112 C-60.61 112 -66.22 112 -72 112 C-72 114.97 -72 117.94 -72 121 C-74.97 121 -77.94 121 -81 121 C-81 123.97 -81 126.94 -81 130 C-83.97 130 -86.94 130 -90 130 C-90 132.97 -90 135.94 -90 139 C-92.97 139 -95.94 139 -99 139 C-99 142.3 -99 145.6 -99 149 C-102.31255326 149.02683436 -105.62489183 149.0467578 -108.9375 149.0625 C-110.35579102 149.07506836 -110.35579102 149.07506836 -111.80273438 149.08789062 C-112.70185547 149.09111328 -113.60097656 149.09433594 -114.52734375 149.09765625 C-115.35999756 149.10289307 -116.19265137 149.10812988 -117.05053711 149.11352539 C-119 149 -119 149 -120 148 C-120.08669432 146.5112814 -120.10703494 145.018555 -120.09765625 143.52734375 C-120.09443359 142.62822266 -120.09121094 141.72910156 -120.08789062 140.80273438 C-120.07951172 139.85720703 -120.07113281 138.91167969 -120.0625 137.9375 C-120.05798828 136.98810547 -120.05347656 136.03871094 -120.04882812 135.06054688 C-120.03700128 132.70700469 -120.01906521 130.35349468 -120 128 C-117.03 128 -114.06 128 -111 128 C-111.020625 126.700625 -111.04125 125.40125 -111.0625 124.0625 C-111.08399454 122.70834367 -111.07148199 121.35243917 -111 120 C-110 119 -110 119 -107.93359375 118.90234375 C-104.46679688 118.95117188 -104.46679688 118.95117188 -101 119 C-101 116.03 -101 113.06 -101 110 C-98.03 110 -95.06 110 -92 110 C-92 107.03 -92 104.06 -92 101 C-89.03 101 -86.06 101 -83 101 C-83 95.39 -83 89.78 -83 84 C-85.97 84 -88.94 84 -92 84 C-92 81.03 -92 78.06 -92 75 C-94.97 75 -97.94 75 -101 75 C-101 68.4 -101 61.8 -101 55 C-94.4 55 -87.8 55 -81 55 C-81 57.97 -81 60.94 -81 64 C-78.03 64 -75.06 64 -72 64 C-72 66.97 -72 69.94 -72 73 C-69.36 73 -66.72 73 -64 73 C-64 70.03 -64 67.06 -64 64 C-61.03 64 -58.06 64 -55 64 C-55 61.03 -55 58.06 -55 55 C-52.03 55 -49.06 55 -46 55 C-46 52.03 -46 49.06 -46 46 C-43.03 46 -40.06 46 -37 46 C-37.020625 44.535625 -37.04125 43.07125 -37.0625 41.5625 C-37.08392007 40.04167482 -37.07179964 38.51928038 -37 37 C-36 36 -36 36 -33.93359375 35.90234375 C-30.46679688 35.95117188 -30.46679688 35.95117188 -27 36 C-27 33.03 -27 30.06 -27 27 C-24.03 27 -21.06 27 -18 27 C-18 24.03 -18 21.06 -18 18 C-15.03 18 -12.06 18 -9 18 C-9 15.03 -9 12.06 -9 9 C-6.03 9 -3.06 9 0 9 C0 6.03 0 3.06 0 0 Z " fill="#818185" transform="translate(173,52)"/>
<path d="M0 0 C4.95 0.495 4.95 0.495 10 1 C10 3.64 10 6.28 10 9 C7.03 9 4.06 9 1 9 C1 12.3 1 15.6 1 19 C-1.97 19 -4.94 19 -8 19 C-8 21.97 -8 24.94 -8 28 C-10.97 28 -13.94 28 -17 28 C-17 30.97 -17 33.94 -17 37 C-19.97 37 -22.94 37 -26 37 C-26 40.3 -26 43.6 -26 47 C-28.97 47 -31.94 47 -35 47 C-35 49.64 -35 52.28 -35 55 C-32.03 55 -29.06 55 -26 55 C-26 57.97 -26 60.94 -26 64 C-23.36 64 -20.72 64 -18 64 C-18 61.36 -18 58.72 -18 56 C-14.7 56 -11.4 56 -8 56 C-8 58.64 -8 61.28 -8 64 C-4.7 64 -1.4 64 2 64 C2 66.97 2 69.94 2 73 C4.1965625 72.9690625 4.1965625 72.9690625 6.4375 72.9375 C7.95832518 72.91607993 9.48071962 72.92820036 11 73 C12.5220959 74.5220959 12.12959521 75.88210082 12.1328125 78 C12.13410156 78.804375 12.13539063 79.60875 12.13671875 80.4375 C12.13285156 81.283125 12.12898438 82.12875 12.125 83 C12.12886719 83.845625 12.13273437 84.69125 12.13671875 85.5625 C12.13542969 86.366875 12.13414062 87.17125 12.1328125 88 C12.13168457 88.7425 12.13055664 89.485 12.12939453 90.25 C12 92 12 92 11 93 C9.5112814 93.08669432 8.018555 93.10703494 6.52734375 93.09765625 C5.62822266 93.09443359 4.72910156 93.09121094 3.80273438 93.08789062 C2.38444336 93.07532227 2.38444336 93.07532227 0.9375 93.0625 C-0.4865918 93.05573242 -0.4865918 93.05573242 -1.93945312 93.04882812 C-4.29299531 93.03700128 -6.64650532 93.01906521 -9 93 C-9 90.03 -9 87.06 -9 84 C-11.97 84 -14.94 84 -18 84 C-18 81.03 -18 78.06 -18 75 C-23.61 75 -29.22 75 -35 75 C-35 77.97 -35 80.94 -35 84 C-37.97 84 -40.94 84 -44 84 C-44 86.97 -44 89.94 -44 93 C-46.97 93 -49.94 93 -53 93 C-53 95.97 -53 98.94 -53 102 C-55.97 102 -58.94 102 -62 102 C-62 105.3 -62 108.6 -62 112 C-65.31255326 112.02683436 -68.62489183 112.0467578 -71.9375 112.0625 C-72.88302734 112.07087891 -73.82855469 112.07925781 -74.80273438 112.08789062 C-76.15141602 112.09272461 -76.15141602 112.09272461 -77.52734375 112.09765625 C-78.35999756 112.10289307 -79.19265137 112.10812988 -80.05053711 112.11352539 C-82 112 -82 112 -83 111 C-83.08669432 109.5112814 -83.10703494 108.018555 -83.09765625 106.52734375 C-83.09443359 105.62822266 -83.09121094 104.72910156 -83.08789062 103.80273438 C-83.07951172 102.85720703 -83.07113281 101.91167969 -83.0625 100.9375 C-83.05798828 99.98810547 -83.05347656 99.03871094 -83.04882812 98.06054688 C-83.03700128 95.70700469 -83.01906521 93.35349468 -83 91 C-80.03 91 -77.06 91 -74 91 C-74.020625 89.700625 -74.04125 88.40125 -74.0625 87.0625 C-74.08399454 85.70834367 -74.07148199 84.35243917 -74 83 C-73 82 -73 82 -70.93359375 81.90234375 C-67.46679688 81.95117188 -67.46679688 81.95117188 -64 82 C-64 79.03 -64 76.06 -64 73 C-61.03 73 -58.06 73 -55 73 C-55 70.03 -55 67.06 -55 64 C-52.03 64 -49.06 64 -46 64 C-46 58.39 -46 52.78 -46 47 C-48.97 47 -51.94 47 -55 47 C-55 44.03 -55 41.06 -55 38 C-57.97 38 -60.94 38 -64 38 C-64 31.4 -64 24.8 -64 18 C-57.4 18 -50.8 18 -44 18 C-44 20.97 -44 23.94 -44 27 C-41.03 27 -38.06 27 -35 27 C-35 29.97 -35 32.94 -35 36 C-32.36 36 -29.72 36 -27 36 C-27 33.03 -27 30.06 -27 27 C-24.03 27 -21.06 27 -18 27 C-18 24.03 -18 21.06 -18 18 C-15.03 18 -12.06 18 -9 18 C-9 15.03 -9 12.06 -9 9 C-6.03 9 -3.06 9 0 9 C0 6.03 0 3.06 0 0 Z " fill="#4E4845" transform="translate(136,89)"/>
<path d="M0 0 C3.46679688 0.04882812 3.46679688 0.04882812 6.93359375 0.09765625 C6.93359375 3.06765625 6.93359375 6.03765625 6.93359375 9.09765625 C9.90359375 9.09765625 12.87359375 9.09765625 15.93359375 9.09765625 C15.93359375 12.06765625 15.93359375 15.03765625 15.93359375 18.09765625 C18.90359375 18.09765625 21.87359375 18.09765625 24.93359375 18.09765625 C24.93359375 20.73765625 24.93359375 23.37765625 24.93359375 26.09765625 C18.99359375 26.09765625 13.05359375 26.09765625 6.93359375 26.09765625 C6.93359375 29.72765625 6.93359375 33.35765625 6.93359375 37.09765625 C4.29359375 37.09765625 1.65359375 37.09765625 -1.06640625 37.09765625 C-1.06640625 40.06765625 -1.06640625 43.03765625 -1.06640625 46.09765625 C-4.03640625 46.09765625 -7.00640625 46.09765625 -10.06640625 46.09765625 C-10.06640625 49.06765625 -10.06640625 52.03765625 -10.06640625 55.09765625 C-13.03640625 55.09765625 -16.00640625 55.09765625 -19.06640625 55.09765625 C-19.06640625 58.39765625 -19.06640625 61.69765625 -19.06640625 65.09765625 C-22.37895951 65.12449061 -25.69129808 65.14441405 -29.00390625 65.16015625 C-29.94943359 65.16853516 -30.89496094 65.17691406 -31.86914062 65.18554688 C-33.21782227 65.19038086 -33.21782227 65.19038086 -34.59375 65.1953125 C-35.42640381 65.20054932 -36.25905762 65.20578613 -37.11694336 65.21118164 C-39.06640625 65.09765625 -39.06640625 65.09765625 -40.06640625 64.09765625 C-40.15310057 62.60893765 -40.17344119 61.11621125 -40.1640625 59.625 C-40.16083984 58.72587891 -40.15761719 57.82675781 -40.15429688 56.90039062 C-40.14591797 55.95486328 -40.13753906 55.00933594 -40.12890625 54.03515625 C-40.12439453 53.08576172 -40.11988281 52.13636719 -40.11523438 51.15820312 C-40.10340753 48.80466094 -40.08547146 46.45115093 -40.06640625 44.09765625 C-37.09640625 44.09765625 -34.12640625 44.09765625 -31.06640625 44.09765625 C-31.08703125 42.79828125 -31.10765625 41.49890625 -31.12890625 40.16015625 C-31.15040079 38.80599992 -31.13788824 37.45009542 -31.06640625 36.09765625 C-30.06640625 35.09765625 -30.06640625 35.09765625 -28 35 C-24.53320312 35.04882812 -24.53320312 35.04882812 -21.06640625 35.09765625 C-21.06640625 32.12765625 -21.06640625 29.15765625 -21.06640625 26.09765625 C-18.09640625 26.09765625 -15.12640625 26.09765625 -12.06640625 26.09765625 C-12.06640625 23.12765625 -12.06640625 20.15765625 -12.06640625 17.09765625 C-9.09640625 17.09765625 -6.12640625 17.09765625 -3.06640625 17.09765625 C-3.07800781 15.95425781 -3.08960938 14.81085938 -3.1015625 13.6328125 C-3.11093913 12.14192871 -3.12003946 10.65104316 -3.12890625 9.16015625 C-3.13728516 8.40541016 -3.14566406 7.65066406 -3.15429688 6.87304688 C-3.16293066 4.94771312 -3.11864958 3.02230044 -3.06640625 1.09765625 C-2.06640625 0.09765625 -2.06640625 0.09765625 0 0 Z " fill="#282323" transform="translate(93.06640625,135.90234375)"/>
<path d="M0 0 C9.9 0 19.8 0 30 0 C30 9.57 30 19.14 30 29 C27.03 29 24.06 29 21 29 C21 31.97 21 34.94 21 38 C17.7 38 14.4 38 11 38 C11 41.3 11 44.6 11 48 C8.36 48 5.72 48 3 48 C2.67 50.97 2.34 53.94 2 57 C-0.97 57 -3.94 57 -7 57 C-7 59.97 -7 62.94 -7 66 C-9.97 66 -12.94 66 -16 66 C-16 68.97 -16 71.94 -16 75 C-20.455 75.495 -20.455 75.495 -25 76 C-24.979375 77.134375 -24.95875 78.26875 -24.9375 79.4375 C-25 83 -25 83 -26 84 C-29.00331018 84.14193337 -31.99217134 84.04236378 -35 84 C-35 86.97 -35 89.94 -35 93 C-38.3 92.67 -41.6 92.34 -45 92 C-45 89.03 -45 86.06 -45 83 C-42.03 83 -39.06 83 -36 83 C-36 80.03 -36 77.06 -36 74 C-33.03 74 -30.06 74 -27 74 C-27 71.03 -27 68.06 -27 65 C-23.7 65 -20.4 65 -17 65 C-17 62.03 -17 59.06 -17 56 C-14.03 56 -11.06 56 -8 56 C-8 52.7 -8 49.4 -8 46 C-5.03 46 -2.06 46 1 46 C1 43.03 1 40.06 1 37 C3.97 37 6.94 37 10 37 C10 34.03 10 31.06 10 28 C12.97 28 15.94 28 19 28 C19 22.06 19 16.12 19 10 C13.06 10 7.12 10 1 10 C1 12.97 1 15.94 1 19 C-5.93359375 19.09765625 -5.93359375 19.09765625 -8 19 C-9 18 -9 18 -9.09765625 15.93359375 C-9.06510417 13.62239583 -9.03255208 11.31119792 -9 9 C-6.03 9 -3.06 9 0 9 C0 6.03 0 3.06 0 0 Z " fill="#737173" transform="translate(173,52)"/>
<path d="M0 0 C2.97 0 5.94 0 9 0 C9 2.97 9 5.94 9 9 C11.64 9 14.28 9 17 9 C17 11.97 17 14.94 17 18 C14.03 18 11.06 18 8 18 C8 21.3 8 24.6 8 28 C5.69 28 3.38 28 1 28 C1.020625 29.299375 1.04125 30.59875 1.0625 31.9375 C1.08399454 33.29165633 1.07148199 34.64756083 1 36 C0 37 0 37 -1.76586914 37.11352539 C-2.51473389 37.10828857 -3.26359863 37.10305176 -4.03515625 37.09765625 C-5.12775757 37.09390991 -5.12775757 37.09390991 -6.24243164 37.09008789 C-7.1730542 37.08098389 -8.10367676 37.07187988 -9.0625 37.0625 C-13.4865625 37.0315625 -13.4865625 37.0315625 -18 37 C-18 31.06 -18 25.12 -18 19 C-15.36 19 -12.72 19 -10 19 C-9.67 21.64 -9.34 24.28 -9 27 C-6.03 27.33 -3.06 27.66 0 28 C0 24.7 0 21.4 0 18 C-2.97 18 -5.94 18 -9 18 C-9 15.03 -9 12.06 -9 9 C-6.03 9 -3.06 9 0 9 C0 6.03 0 3.06 0 0 Z " fill="#252122" transform="translate(73,163)"/>
<path d="M0 0 C3.3 0.33 6.6 0.66 10 1 C10 3.64 10 6.28 10 9 C7.03 9 4.06 9 1 9 C1 12.3 1 15.6 1 19 C-1.97 19 -4.94 19 -8 19 C-8 21.97 -8 24.94 -8 28 C-10.97 28 -13.94 28 -17 28 C-17 30.97 -17 33.94 -17 37 C-20.3 37 -23.6 37 -27 37 C-27 39.97 -27 42.94 -27 46 C-29.64 46 -32.28 46 -35 46 C-35.02689216 44.52093108 -35.04634621 43.04172517 -35.0625 41.5625 C-35.07990234 40.32693359 -35.07990234 40.32693359 -35.09765625 39.06640625 C-35 37 -35 37 -34 36 C-31.66702567 35.95907063 -29.33294775 35.95758277 -27 36 C-27 33.03 -27 30.06 -27 27 C-24.03 27 -21.06 27 -18 27 C-18 24.03 -18 21.06 -18 18 C-15.03 18 -12.06 18 -9 18 C-9 15.03 -9 12.06 -9 9 C-6.03 9 -3.06 9 0 9 C0 6.03 0 3.06 0 0 Z " fill="#383536" transform="translate(136,89)"/>
<path d="M0 0 C9.24 0 18.48 0 28 0 C28 8.91 28 17.82 28 27 C25.03 27 22.06 27 19 27 C19 20.73 19 14.46 19 8 C12.73 8 6.46 8 0 8 C0 5.36 0 2.72 0 0 Z " fill="#242021" transform="translate(174,53)"/>
<path d="M0 0 C2.97 0 5.94 0 9 0 C9 2.97 9 5.94 9 9 C6.03 9 3.06 9 0 9 C0 11.97 0 14.94 0 18 C-2.97 18 -5.94 18 -9 18 C-9 20.97 -9 23.94 -9 27 C-11.97 27 -14.94 27 -18 27 C-18 29.97 -18 32.94 -18 36 C-21.3 36 -24.6 36 -28 36 C-28 33.03 -28 30.06 -28 27 C-25.03 27 -22.06 27 -19 27 C-19 23.7 -19 20.4 -19 17 C-16.03 17 -13.06 17 -10 17 C-10 14.36 -10 11.72 -10 9 C-12.97 9 -15.94 9 -19 9 C-19 8.34 -19 7.68 -19 7 C-12.58311325 6.89650183 -6.37305598 7.25492456 0 8 C0 5.36 0 2.72 0 0 Z " fill="#A6A6A7" transform="translate(156,81)"/>
<path d="M0 0 C3.46679688 0.04882812 3.46679688 0.04882812 6.93359375 0.09765625 C6.93359375 3.06765625 6.93359375 6.03765625 6.93359375 9.09765625 C9.90359375 9.09765625 12.87359375 9.09765625 15.93359375 9.09765625 C15.93359375 6.12765625 15.93359375 3.15765625 15.93359375 0.09765625 C18.90359375 0.09765625 21.87359375 0.09765625 24.93359375 0.09765625 C24.93359375 6.36765625 24.93359375 12.63765625 24.93359375 19.09765625 C18.66359375 19.09765625 12.39359375 19.09765625 5.93359375 19.09765625 C5.93359375 16.12765625 5.93359375 13.15765625 5.93359375 10.09765625 C2.96359375 10.09765625 -0.00640625 10.09765625 -3.06640625 10.09765625 C-3.1640625 3.1640625 -3.1640625 3.1640625 -3.06640625 1.09765625 C-2.06640625 0.09765625 -2.06640625 0.09765625 0 0 Z " fill="#262120" transform="translate(121.06640625,162.90234375)"/>
<path d="M0 0 C2.97 0 5.94 0 9 0 C9 2.97 9 5.94 9 9 C11.64 9 14.28 9 17 9 C17 11.97 17 14.94 17 18 C8.42 18 -0.16 18 -9 18 C-9 15.03 -9 12.06 -9 9 C-6.03 9 -3.06 9 0 9 C0 6.03 0 3.06 0 0 Z " fill="#5D3713" transform="translate(73,163)"/>
<path d="M0 0 C9.9 0 19.8 0 30 0 C30 9.57 30 19.14 30 29 C27.03 29 24.06 29 21 29 C21 31.97 21 34.94 21 38 C17.7 38 14.4 38 11 38 C11 34.7 11 31.4 11 28 C13.64 28 16.28 28 19 28 C19 22.06 19 16.12 19 10 C13.06 10 7.12 10 1 10 C1 12.97 1 15.94 1 19 C-5.93359375 19.09765625 -5.93359375 19.09765625 -8 19 C-9 18 -9 18 -9.09765625 15.93359375 C-9.06510417 13.62239583 -9.03255208 11.31119792 -9 9 C-6.03 9 -3.06 9 0 9 C0 6.03 0 3.06 0 0 Z M1 1 C1 3.64 1 6.28 1 9 C7.27 9 13.54 9 20 9 C20 15.27 20 21.54 20 28 C22.97 28 25.94 28 29 28 C29 19.09 29 10.18 29 1 C19.76 1 10.52 1 1 1 Z " fill="#636263" transform="translate(173,52)"/>
<path d="M0 0 C2.97 0 5.94 0 9 0 C9.02721831 3.0000624 9.04694378 5.99987256 9.0625 9 C9.07087891 9.83917969 9.07925781 10.67835938 9.08789062 11.54296875 C9.10824033 16.79319339 8.76368207 21.80455662 8 27 C5.36 27 2.72 27 0 27 C0 24.03 0 21.06 0 18 C-2.97 18 -5.94 18 -9 18 C-9 15.36 -9 12.72 -9 10 C-6.03 10 -3.06 10 0 10 C0 6.7 0 3.4 0 0 Z " fill="#FAB044" transform="translate(110,126)"/>
<path d="M0 0 C5.94 0 11.88 0 18 0 C18 2.97 18 5.94 18 9 C15.03 9 12.06 9 9 9 C9 11.97 9 14.94 9 18 C6.03 18 3.06 18 0 18 C0 12.06 0 6.12 0 0 Z " fill="#262121" transform="translate(73,108)"/>
<path d="M0 0 C0.33 0 0.66 0 1 0 C1.8931507 6.58183362 1.95494281 12.42150508 1 19 C3.64 19 6.28 19 9 19 C9 16.03 9 13.06 9 10 C9.33 10 9.66 10 10 10 C10 13.3 10 16.6 10 20 C7.03 20 4.06 20 1 20 C1 22.64 1 25.28 1 28 C3.97 28 6.94 28 10 28 C10 30.97 10 33.94 10 37 C12.64 37 15.28 37 18 37 C18 34.36 18 31.72 18 29 C18.33 29 18.66 29 19 29 C19 31.97 19 34.94 19 38 C21.97 38 24.94 38 28 38 C28 40.97 28 43.94 28 47 C19.02243049 48.3300103 10.05168034 48.08788039 1 48 C1 50.97 1 53.94 1 57 C0.67 57 0.34 57 0 57 C0 53.37 0 49.74 0 46 C5.94 46 11.88 46 18 46 C18 43.36 18 40.72 18 38 C15.03 38 12.06 38 9 38 C9 35.03 9 32.06 9 29 C6.03 29 3.06 29 0 29 C0 26.03 0 23.06 0 20 C-1.464375 20.185625 -2.92875 20.37125 -4.4375 20.5625 C-9.48564755 21.08099732 -13.98740146 20.72763527 -19 20 C-19 19.67 -19 19.34 -19 19 C-12.73 19 -6.46 19 0 19 C0 12.73 0 6.46 0 0 Z " fill="#836C4E" transform="translate(100,116)"/>
<path d="M0 0 C3.3 0 6.6 0 10 0 C10 0.33 10 0.66 10 1 C7.03 1 4.06 1 1 1 C1 3.97 1 6.94 1 10 C-1.97 10 -4.94 10 -8 10 C-8 12.97 -8 15.94 -8 19 C-5.03 19 -2.06 19 1 19 C1 22.3 1 25.6 1 29 C-5.93359375 29.09765625 -5.93359375 29.09765625 -8 29 C-9 28 -9 28 -9.09765625 26.15234375 C-9.04882812 23.07617188 -9.04882812 23.07617188 -9 20 C-11.64 20 -14.28 20 -17 20 C-17 25.94 -17 31.88 -17 38 C-7.595 37.505 -7.595 37.505 2 37 C2 37.66 2 38.32 2 39 C-1.31248187 39.02888146 -4.62493167 39.04675799 -7.9375 39.0625 C-8.88302734 39.07087891 -9.82855469 39.07925781 -10.80273438 39.08789062 C-12.15141602 39.09272461 -12.15141602 39.09272461 -13.52734375 39.09765625 C-14.77632446 39.10551147 -14.77632446 39.10551147 -16.05053711 39.11352539 C-18 39 -18 39 -19 38 C-19.08669432 36.5112814 -19.10703494 35.018555 -19.09765625 33.52734375 C-19.09443359 32.62822266 -19.09121094 31.72910156 -19.08789062 30.80273438 C-19.07951172 29.85720703 -19.07113281 28.91167969 -19.0625 27.9375 C-19.05798828 26.98810547 -19.05347656 26.03871094 -19.04882812 25.06054688 C-19.03700128 22.70700469 -19.01906521 20.35349468 -19 18 C-16.03 18 -13.06 18 -10 18 C-10.020625 16.700625 -10.04125 15.40125 -10.0625 14.0625 C-10.08399454 12.70834367 -10.07148199 11.35243917 -10 10 C-9 9 -9 9 -6.93359375 8.90234375 C-3.46679688 8.95117188 -3.46679688 8.95117188 0 9 C0 6.03 0 3.06 0 0 Z " fill="#92877A" transform="translate(72,162)"/>
<path d="M0 0 C2.97 0 5.94 0 9 0 C9 5.61 9 11.22 9 17 C6.03 17 3.06 17 0 17 C0 11.39 0 5.78 0 0 Z " fill="#231E1F" transform="translate(91,136)"/>
<path d="M0 0 C5.61 0 11.22 0 17 0 C17 2.64 17 5.28 17 8 C11.39 8 5.78 8 0 8 C0 5.36 0 2.72 0 0 Z " fill="#221E1F" transform="translate(101,154)"/>
<path d="M0 0 C3.46679688 0.04882812 3.46679688 0.04882812 6.93359375 0.09765625 C6.93359375 3.06765625 6.93359375 6.03765625 6.93359375 9.09765625 C9.90359375 9.09765625 12.87359375 9.09765625 15.93359375 9.09765625 C15.93359375 9.42765625 15.93359375 9.75765625 15.93359375 10.09765625 C12.96359375 10.09765625 9.99359375 10.09765625 6.93359375 10.09765625 C6.93359375 12.73765625 6.93359375 15.37765625 6.93359375 18.09765625 C12.87359375 18.09765625 18.81359375 18.09765625 24.93359375 18.09765625 C24.93359375 18.42765625 24.93359375 18.75765625 24.93359375 19.09765625 C18.66359375 19.09765625 12.39359375 19.09765625 5.93359375 19.09765625 C5.93359375 16.12765625 5.93359375 13.15765625 5.93359375 10.09765625 C2.96359375 10.09765625 -0.00640625 10.09765625 -3.06640625 10.09765625 C-3.1640625 3.1640625 -3.1640625 3.1640625 -3.06640625 1.09765625 C-2.06640625 0.09765625 -2.06640625 0.09765625 0 0 Z " fill="#2D2825" transform="translate(121.06640625,162.90234375)"/>
<path d="M0 0 C2.97 0 5.94 0 9 0 C9.82574651 6.39953542 10.09088753 12.54698539 10 19 C7.03 19 4.06 19 1 19 C1 21.97 1 24.94 1 28 C0.34 28 -0.32 28 -1 28 C-1 24.7 -1 21.4 -1 18 C1.97 18 4.94 18 8 18 C8 15.03 8 12.06 8 9 C5.36 9 2.72 9 0 9 C0 6.03 0 3.06 0 0 Z " fill="#5C432C" transform="translate(82,163)"/>
<path d="M0 0 C2.97 0 5.94 0 9 0 C9 3.3 9 6.6 9 10 C2.84765625 10.09765625 2.84765625 10.09765625 1 10 C0 9 0 9 -0.09765625 6.93359375 C-0.06510417 4.62239583 -0.03255208 2.31119792 0 0 Z " fill="#262120" transform="translate(91,163)"/>
<path d="M0 0 C3.46679688 0.04882812 3.46679688 0.04882812 6.93359375 0.09765625 C6.93359375 3.06765625 6.93359375 6.03765625 6.93359375 9.09765625 C3.63359375 9.09765625 0.33359375 9.09765625 -3.06640625 9.09765625 C-3.1640625 2.9453125 -3.1640625 2.9453125 -3.06640625 1.09765625 C-2.06640625 0.09765625 -2.06640625 0.09765625 0 0 Z " fill="#292320" transform="translate(84.06640625,125.90234375)"/>
<path d="M0 0 C3.3 0 6.6 0 10 0 C10 2.97 10 5.94 10 9 C3.06640625 9.09765625 3.06640625 9.09765625 1 9 C0 8 0 8 -0.09765625 6.15234375 C-0.06510417 4.1015625 -0.03255208 2.05078125 0 0 Z " fill="#2A2728" transform="translate(164,62)"/>
<path d="M0 0 C2.97 0 5.94 0 9 0 C9 2.97 9 5.94 9 9 C6.03 9 3.06 9 0 9 C0 6.03 0 3.06 0 0 Z " fill="#282221" transform="translate(64,172)"/>
<path d="M0 0 C2.97 0 5.94 0 9 0 C9 2.97 9 5.94 9 9 C6.03 9 3.06 9 0 9 C0 6.03 0 3.06 0 0 Z " fill="#F2AB42" transform="translate(128,163)"/>
<path d="M0 0 C2.97 0 5.94 0 9 0 C9 2.97 9 5.94 9 9 C6.03 9 3.06 9 0 9 C0 6.03 0 3.06 0 0 Z " fill="#262120" transform="translate(73,163)"/>
<path d="M0 0 C2.97 0 5.94 0 9 0 C9 2.97 9 5.94 9 9 C6.03 9 3.06 9 0 9 C0 6.03 0 3.06 0 0 Z " fill="#F2AB41" transform="translate(119,154)"/>
<path d="M0 0 C2.97 0 5.94 0 9 0 C9 2.97 9 5.94 9 9 C6.03 9 3.06 9 0 9 C0 6.03 0 3.06 0 0 Z " fill="#5C3713" transform="translate(91,154)"/>
<path d="M0 0 C2.97 0 5.94 0 9 0 C9 2.97 9 5.94 9 9 C6.03 9 3.06 9 0 9 C0 6.03 0 3.06 0 0 Z " fill="#282425" transform="translate(137,126)"/>
<path d="M0 0 C2.97 0 5.94 0 9 0 C9 2.97 9 5.94 9 9 C6.03 9 3.06 9 0 9 C0 6.03 0 3.06 0 0 Z " fill="#F6F6F5" transform="translate(110,126)"/>
<path d="M0 0 C2.97 0 5.94 0 9 0 C9 2.97 9 5.94 9 9 C6.03 9 3.06 9 0 9 C0 6.03 0 3.06 0 0 Z " fill="#F0A941" transform="translate(91,126)"/>
<path d="M0 0 C2.97 0 5.94 0 9 0 C9 2.97 9 5.94 9 9 C6.03 9 3.06 9 0 9 C0 6.03 0 3.06 0 0 Z " fill="#282425" transform="translate(147,117)"/>
<path d="M0 0 C2.97 0 5.94 0 9 0 C9 2.97 9 5.94 9 9 C6.03 9 3.06 9 0 9 C0 6.03 0 3.06 0 0 Z " fill="#F9F9F9" transform="translate(119,117)"/>
<path d="M0 0 C2.97 0 5.94 0 9 0 C9 2.97 9 5.94 9 9 C6.03 9 3.06 9 0 9 C0 6.03 0 3.06 0 0 Z " fill="#F3AB42" transform="translate(82,117)"/>
<path d="M0 0 C2.97 0 5.94 0 9 0 C9 2.97 9 5.94 9 9 C6.03 9 3.06 9 0 9 C0 6.03 0 3.06 0 0 Z " fill="#F7F7F7" transform="translate(128,108)"/>
<path d="M0 0 C2.97 0 5.94 0 9 0 C9 2.97 9 5.94 9 9 C6.03 9 3.06 9 0 9 C0 6.03 0 3.06 0 0 Z " fill="#272324" transform="translate(156,108)"/>
<path d="M0 0 C2.97 0 5.94 0 9 0 C9 2.97 9 5.94 9 9 C6.03 9 3.06 9 0 9 C0 6.03 0 3.06 0 0 Z " fill="#272324" transform="translate(165,99)"/>
<path d="M0 0 C2.97 0 5.94 0 9 0 C9 2.97 9 5.94 9 9 C6.03 9 3.06 9 0 9 C0 6.03 0 3.06 0 0 Z " fill="#F4F4F4" transform="translate(147,90)"/>
<path d="M0 0 C2.97 0 5.94 0 9 0 C9 2.97 9 5.94 9 9 C6.03 9 3.06 9 0 9 C0 6.03 0 3.06 0 0 Z " fill="#262324" transform="translate(146,80)"/>
<path d="M0 0 C2.97 0 5.94 0 9 0 C9 2.97 9 5.94 9 9 C6.03 9 3.06 9 0 9 C0 6.03 0 3.06 0 0 Z " fill="#F7F7F7" transform="translate(165,71)"/>
<path d="M0 0 C2.64 0 5.28 0 8 0 C8 2.97 8 5.94 8 9 C5.36 9 2.72 9 0 9 C0 6.03 0 3.06 0 0 Z " fill="#241F1E" transform="translate(82,172)"/>
<path d="M0 0 C2.64 0 5.28 0 8 0 C8 2.97 8 5.94 8 9 C5.36 9 2.72 9 0 9 C0 6.03 0 3.06 0 0 Z " fill="#242021" transform="translate(129,153)"/>
<path d="M0 0 C2.97 0 5.94 0 9 0 C9 2.64 9 5.28 9 8 C6.03 8 3.06 8 0 8 C0 5.36 0 2.72 0 0 Z " fill="#242122" transform="translate(128,136)"/>
<path d="M0 0 C2.64 0 5.28 0 8 0 C8 2.97 8 5.94 8 9 C5.36 9 2.72 9 0 9 C0 6.03 0 3.06 0 0 Z " fill="#231F1E" transform="translate(101,126)"/>
<path d="M0 0 C2.97 0 5.94 0 9 0 C9 2.64 9 5.28 9 8 C6.03 8 3.06 8 0 8 C0 5.36 0 2.72 0 0 Z " fill="#242021" transform="translate(109,117)"/>
<path d="M0 0 C2.97 0 5.94 0 9 0 C9 2.64 9 5.28 9 8 C6.03 8 3.06 8 0 8 C0 5.36 0 2.72 0 0 Z " fill="#232021" transform="translate(128,99)"/>
<path d="M0 0 C2.97 0 5.94 0 9 0 C9 2.64 9 5.28 9 8 C6.03 8 3.06 8 0 8 C0 5.36 0 2.72 0 0 Z " fill="#221E1F" transform="translate(137,90)"/>
<path d="M0 0 C2.97 0 5.94 0 9 0 C9 2.64 9 5.28 9 8 C6.03 8 3.06 8 0 8 C0 5.36 0 2.72 0 0 Z " fill="#FCFCFC" transform="translate(156,81)"/>
<path d="M0 0 C2.64 0 5.28 0 8 0 C8 2.97 8 5.94 8 9 C5.36 9 2.72 9 0 9 C0 6.03 0 3.06 0 0 Z " fill="#FCFBFB" transform="translate(175,62)"/>
<path d="M0 0 C2.64 0 5.28 0 8 0 C8 2.64 8 5.28 8 8 C5.36 8 2.72 8 0 8 C0 5.36 0 2.72 0 0 Z " fill="#FCB141" transform="translate(64,182)"/>
<path d="M0 0 C2.64 0 5.28 0 8 0 C8 2.64 8 5.28 8 8 C5.36 8 2.72 8 0 8 C0 5.36 0 2.72 0 0 Z " fill="#5F3811" transform="translate(101,145)"/>
<path d="M0 0 C2.64 0 5.28 0 8 0 C8 2.64 8 5.28 8 8 C5.36 8 2.72 8 0 8 C0 5.36 0 2.72 0 0 Z " fill="#FEFEFE" transform="translate(138,99)"/>
<path d="M0 0 C2.64 0 5.28 0 8 0 C8 2.64 8 5.28 8 8 C5.36 8 2.72 8 0 8 C0 5.36 0 2.72 0 0 Z " fill="#221E20" transform="translate(175,90)"/>
<path d="M0 0 C2.64 0 5.28 0 8 0 C8 2.64 8 5.28 8 8 C5.36 8 2.72 8 0 8 C0 5.36 0 2.72 0 0 Z " fill="#221E1F" transform="translate(184,81)"/>
<path d="M0 0 C2.64 0 5.28 0 8 0 C8 2.64 8 5.28 8 8 C5.36 8 2.72 8 0 8 C0 5.36 0 2.72 0 0 Z " fill="#231F20" transform="translate(156,72)"/>
<path d="M0 0 C0.33 0 0.66 0 1 0 C1 2.64 1 5.28 1 8 C3.64 8 6.28 8 9 8 C9 8.33 9 8.66 9 9 C6.36 9 3.72 9 1 9 C1 11.64 1 14.28 1 17 C0.67 17 0.34 17 0 17 C0 14.36 0 11.72 0 9 C-2.97 9 -5.94 9 -9 9 C-9 8.67 -9 8.34 -9 8 C-6.03 8 -3.06 8 0 8 C0 5.36 0 2.72 0 0 Z " fill="#402B18" transform="translate(100,145)"/>
</svg>
